<svg width="25" height="25" viewBox="0 0 25 25" fill="none" xmlns="http://www.w3.org/2000/svg">
<g clip-path="url(#clip0)">
<path d="M14.0725 23.8538C13.9717 23.8702 13.8706 23.8853 13.769 23.8992C13.8706 23.8853 13.9717 23.8702 14.0725 23.8538Z" fill="white"/>
<path d="M14.3153 23.8127C14.2671 23.8216 14.219 23.8297 14.1708 23.838C14.219 23.8297 14.2671 23.8216 14.3153 23.8127Z" fill="white"/>
<path d="M13.4977 23.9321C13.3797 23.9454 13.261 23.9572 13.142 23.9672C13.261 23.9572 13.3797 23.9454 13.4977 23.9321Z" fill="white"/>
<path d="M13.7309 23.9041C13.6742 23.9116 13.6172 23.9186 13.5603 23.9253C13.6172 23.9186 13.6742 23.9116 13.7309 23.9041Z" fill="white"/>
<path d="M14.6452 23.7478C14.6027 23.7568 14.5601 23.7659 14.5175 23.7746C14.5601 23.7659 14.6027 23.7568 14.6452 23.7478Z" fill="white"/>
<path d="M15.4649 23.5464C15.4303 23.5562 15.3957 23.5656 15.3611 23.5752C15.3957 23.5656 15.4303 23.5562 15.4649 23.5464Z" fill="white"/>
<path d="M15.2174 23.6135C15.1798 23.6234 15.142 23.6334 15.1042 23.6429C15.142 23.6334 15.1798 23.6236 15.2174 23.6135Z" fill="white"/>
<path d="M14.8934 23.6936C14.8536 23.7029 14.8134 23.7117 14.7732 23.7206C14.8134 23.7117 14.8536 23.7029 14.8934 23.6936Z" fill="white"/>
<path d="M13.1378 23.9673C13.0741 23.9726 13.0104 23.9774 12.9465 23.9817C13.0104 23.9774 13.0741 23.9726 13.1378 23.9673Z" fill="white"/>
<path d="M24.238 12.005C24.238 5.37584 18.8111 0 12.119 0C5.42689 0 0 5.37584 0 12.005C0 18.6342 5.42689 24.01 12.119 24.01C12.1902 24.01 12.261 24.0085 12.332 24.0073V14.6619H9.72835V11.656H12.332V9.44412C12.332 6.87884 13.9129 5.48263 16.223 5.48263C17.3292 5.48263 18.2801 5.56433 18.5572 5.60078V8.28183H16.9643C15.7076 8.28183 15.4642 8.87351 15.4642 9.74161V11.656H18.4692L18.0776 14.6619H15.4642V23.5462C20.5298 22.1077 24.238 17.4847 24.238 12.005Z" fill="#32DE84"/>
<path d="M12.9191 23.9832C12.7932 23.9913 12.6667 23.9977 12.5399 24.002C12.6667 23.9977 12.7932 23.9913 12.9191 23.9832Z" fill="black"/>
<path d="M12.5331 24.0022C12.4663 24.0044 12.3993 24.0061 12.3323 24.0072C12.3993 24.0061 12.4663 24.0044 12.5331 24.0022Z" fill="black"/>
</g>
<defs>
<clipPath id="clip0">
<rect width="24.238" height="24.01" fill="white"/>
</clipPath>
</defs>
</svg>
