<svg width="25" height="25" viewBox="0 0 25 25" fill="none" xmlns="http://www.w3.org/2000/svg">
<g clip-path="url(#clip0)">
<path d="M12.8811 0C6.18896 0 0.762085 5.37584 0.762085 12.005C0.762085 18.6342 6.18896 24.01 12.8811 24.01C19.5732 24.01 25.0001 18.6342 25.0001 12.005C25.0001 5.37584 19.5732 0 12.8811 0ZM9.35944 18.1482H6.40791V9.35198H9.35944V18.1482ZM7.88377 8.15086H7.86453C6.8741 8.15086 6.23353 7.47547 6.23353 6.63137C6.23353 5.76821 6.8937 5.11151 7.90337 5.11151C8.91304 5.11151 9.53437 5.76821 9.5536 6.63137C9.5536 7.47547 8.91304 8.15086 7.88377 8.15086ZM20.002 18.1482H17.0509V13.4424C17.0509 12.2598 16.6235 11.4533 15.5556 11.4533C14.7403 11.4533 14.2547 11.9973 14.0413 12.5225C13.9632 12.7104 13.9442 12.9731 13.9442 13.236V18.1482H10.9928C10.9928 18.1482 11.0315 10.1772 10.9928 9.35198H13.9442V10.5974C14.3364 9.99806 15.0382 9.14554 16.6041 9.14554C18.5459 9.14554 20.002 10.4027 20.002 13.1045V18.1482Z" fill="#32DE84"/>
</g>
<defs>
<clipPath id="clip0">
<rect width="24.238" height="24.01" fill="white" transform="translate(0.762085)"/>
</clipPath>
</defs>
</svg>
