<svg width="25" height="25" viewBox="0 0 25 25" fill="none" xmlns="http://www.w3.org/2000/svg">
<g clip-path="url(#clip0)">
<path d="M12.6268 0C5.93471 0 0.507812 5.37584 0.507812 12.005C0.507812 18.6342 5.93471 24.01 12.6268 24.01C19.319 24.01 24.7458 18.6342 24.7458 12.005C24.7458 5.37584 19.319 0 12.6268 0ZM18.1602 9.36023C18.1656 9.47838 18.1682 9.59708 18.1682 9.71633C18.1682 13.3574 15.3703 17.5561 10.2537 17.5563H10.2539H10.2537C8.68282 17.5563 7.22102 17.1002 5.99 16.3186C6.20765 16.344 6.42919 16.3567 6.6535 16.3567C7.95682 16.3567 9.15622 15.9163 10.1084 15.1772C8.89068 15.1548 7.86399 14.3582 7.50968 13.2633C7.67926 13.2955 7.85364 13.3131 8.03245 13.3131C8.28635 13.3131 8.5323 13.2792 8.76604 13.216C7.49322 12.9636 6.53441 11.8493 6.53441 10.515C6.53441 10.5025 6.53441 10.4914 6.53478 10.4798C6.90961 10.6863 7.33826 10.8105 7.79465 10.8244C7.04775 10.3307 6.55678 9.4868 6.55678 8.53078C6.55678 8.02593 6.69455 7.55295 6.93347 7.14574C8.30521 8.81306 10.3553 9.90959 12.6671 10.0248C12.6194 9.82294 12.5948 9.61265 12.5948 9.3965C12.5948 7.87535 13.8407 6.64126 15.3768 6.64126C16.177 6.64126 16.8996 6.9763 17.4072 7.51192C18.041 7.38809 18.636 7.15875 19.1736 6.84312C18.9656 7.48628 18.5247 8.02593 17.9504 8.3672C18.5131 8.30052 19.0493 8.15269 19.5477 7.93324C19.1755 8.4859 18.7034 8.97133 18.1602 9.36023Z" fill="#32DE84"/>
</g>
<defs>
<clipPath id="clip0">
<rect width="24.238" height="24.01" fill="white" transform="translate(0.507812)"/>
</clipPath>
</defs>
</svg>
